<?xml version="1.0" encoding="UTF-8" standalone="no"?><!-- Created with Inkscape (http://www.inkscape.org/) -->
<svg xmlns:svg="http://www.w3.org/2000/svg" xmlns="http://www.w3.org/2000/svg" version="1.0"
    width="885.82678" height="342.73422" id="svg2">
    <defs id="defs4" />
    <g transform="translate(860.58717,-113.53468)" id="layer1">
        <g id="g3512">
            <path
                d="M -860.58717,456.26889 L 25.239604,456.26889 L 25.239604,113.53468 L -860.58717,113.53468 L -860.58717,456.26889 z"
                id="path3387" style="fill:#ffffff;fill-opacity:1;fill-rule:nonzero;stroke:none" />
            <path
                d="M -839.72097,437.63485 L 6.1323479,437.63485 L 6.1323479,133.92766 L -839.72097,133.92766 L -839.72097,437.63485 z"
                id="path3389" style="fill:#ffffff;fill-opacity:1;fill-rule:nonzero;stroke:none" />
            <path
                d="M -839.72097,437.63485 L 6.1323479,437.63485 L 6.1323479,133.92766 L -839.72097,133.92766 L -839.72097,437.63485 z"
                id="path3391"
                style="fill:none;stroke:#00adef;stroke-width:6.63396835;stroke-linecap:butt;stroke-linejoin:miter;stroke-miterlimit:4;stroke-dasharray:none;stroke-opacity:1" />
            <path
                d="M -819.74764,418.10795 L -13.751701,418.10795 L -13.751701,294.39291 L -819.74764,294.39291 L -819.74764,418.10795 z"
                id="path3393" style="fill:#00adef;fill-opacity:1;fill-rule:nonzero;stroke:none" />
            <path
                d="M -819.74764,418.10795 L -13.751701,418.10795 L -13.751701,294.39291 L -819.74764,294.39291 L -819.74764,418.10795 z"
                id="path3395"
                style="fill:none;stroke:#00adef;stroke-width:6.63396835;stroke-linecap:butt;stroke-linejoin:miter;stroke-miterlimit:4;stroke-dasharray:none;stroke-opacity:1" />
            <path
                d="M -572.70329,282.08927 L -599.77488,282.08927 L -610.47138,251.41051 L -664.24849,251.41051 L -674.48962,282.14284 L -702.40943,282.12498 L -657.50737,151.62419 L -616.8107,151.62419 L -572.70329,282.08927 z M -637.12332,172.52611 L -656.86451,229.65145 L -617.70356,229.65145"
                id="path3399" style="fill:#00adef;fill-opacity:1;fill-rule:nonzero;stroke:none" />
            <path
                d="M -568.56848,282.17766 L -542.91654,282.17766 L -542.81832,176.83774 L -488.97871,282.4098 L -456.38923,282.4098 L -456.38923,151.65901 L -482.41617,151.65901 L -482.41617,246.30244 L -529.55039,151.5608 L -568.47919,151.5608"
                id="path3403" style="fill:#00adef;fill-opacity:1;fill-rule:nonzero;stroke:none" />
            <path
                d="M -373.40566,152.59384 C -356.28949,153.06706 -349.02158,156.11172 -342.45012,160.33496 C -335.88758,164.54927 -317.78032,176.18327 -317.78032,214.40671 C -317.78032,252.63016 -329.03932,264.1213 -340.29832,273.26421 C -351.54839,282.40713 -377.11104,282.17498 -377.11104,282.17498 L -428.70064,282.17498 L -428.70064,152.30813 C -428.70064,152.30813 -390.52183,152.12062 -373.40566,152.59384 z M -402.20048,173.84397 L -402.20048,259.9427 L -371.48601,259.89806 C -371.48601,259.89806 -363.74489,260.1302 -356.70913,254.97839 C -351.2091,250.94265 -346.1555,241.84438 -345.21799,233.3979 C -344.28048,224.96035 -343.03048,196.04053 -352.3966,183.92439 C -360.45915,173.48683 -372.42351,173.84397 -375.00388,173.84397 C -377.57533,173.84397 -402.20048,173.84397 -402.20048,173.84397"
                id="path3407" style="fill:#00adef;fill-opacity:1;fill-rule:nonzero;stroke:none" />
            <path
                d="M -320.64377,152.68759 L -293.67932,152.68759 L -259.2059,256.5275 L -223.79497,152.68759 L -196.35731,152.68759 L -240.91115,282.17945 L -277.67923,282.17945"
                id="path3411" style="fill:#00adef;fill-opacity:1;fill-rule:nonzero;stroke:none" />
            <path
                d="M -190.21706,282.17855 L -163.71689,282.17855 L -163.71689,152.6867 L -190.21706,152.6867 L -190.21706,282.17855 z"
                id="path3413" style="fill:#00adef;fill-opacity:1;fill-rule:nonzero;stroke:none" />
            <path
                d="M -109.50228,202.40129 L -61.475203,152.4992 L -22.082108,152.4992 L -85.162846,213.23171 L -17.153507,282.32141 L -55.144808,282.32141 L -109.54692,225.66035 L -109.54692,282.17855 L -136.04708,282.17855 L -136.04708,152.4992 L -109.54692,152.59741"
                id="path3417" style="fill:#00adef;fill-opacity:1;fill-rule:nonzero;stroke:none" />
            <path
                d="M -730.49803,192.59944 L -702.59607,192.59944 C -702.59607,192.59944 -701.89071,174.7779 -709.39076,164.69749 C -716.89973,154.60814 -729.32838,151.09026 -739.88201,149.45632 C -750.42672,147.81346 -784.26621,144.75987 -801.97167,158.36709 C -818.15034,170.79574 -815.62354,188.3762 -815.62354,188.14406 C -815.62354,187.91191 -816.58783,210.94777 -796.62343,219.0996 C -785.14121,223.78713 -762.62322,225.19785 -762.62322,225.19785 C -762.62322,225.19785 -744.80169,226.84072 -739.4088,228.94787 C -734.01591,231.05503 -729.32838,235.04613 -729.32838,242.77831 C -729.32838,250.51943 -731.43553,255.91232 -735.65877,259.19806 C -739.88201,262.48379 -744.09632,264.59095 -756.29283,264.59095 C -768.48933,264.59095 -776.69474,260.13556 -779.50725,257.55519 C -782.31977,254.97482 -786.31086,249.11764 -786.54301,243.71582 C -786.77515,238.32293 -786.77515,235.27827 -786.77515,235.27827 L -816.08783,235.27827 C -816.08783,235.27827 -817.7307,251.93016 -809.05207,264.3588 C -800.38238,276.78745 -787.01623,280.30533 -780.21261,281.94819 C -773.409,283.58213 -764.03394,284.28749 -756.29283,284.28749 C -748.55171,284.28749 -732.1409,283.34999 -718.77474,274.67136 C -705.40859,266.00167 -701.65857,254.97482 -701.65857,241.14438 C -701.65857,227.30501 -705.64074,220.97461 -711.73899,215.81387 C -717.83724,210.65312 -727.45337,207.8406 -737.99807,206.19774 C -748.55171,204.5638 -753.24817,205.02809 -763.09644,203.85844 C -772.94471,202.67986 -781.38226,201.98343 -784.90014,194.94767 C -788.41802,187.91191 -788.41802,179.46543 -781.38226,172.90289 C -774.34651,166.34035 -762.15893,166.80464 -759.10534,166.80464 C -756.06068,166.80464 -742.92667,167.74215 -737.76593,173.36718 C -732.60518,179.00114 -730.97125,182.27795 -730.49803,192.59944"
                id="path3421" style="fill:#00adef;fill-opacity:1;fill-rule:nonzero;stroke:none" />
        </g>
    </g>
</svg>