<?xml version="1.0" encoding="UTF-8" standalone="no"?>
<svg xmlns:svg="http://www.w3.org/2000/svg" xmlns="http://www.w3.org/2000/svg"
    xmlns:xlink="http://www.w3.org/1999/xlink" version="1.0" width="709" height="311" id="SEB">
    <path
        d="m 0,225.06535 40.41751,-30.16582 c 28.2805,24.62759 48.07678,28.16264 64.57371,28.16264 18.85366,0 36.52891,-4.00636 38.88564,-14.72936 1.76758,-8.48421 -5.30252,-15.31861 -21.446,-19.08936 -18.2645,-4.12421 -33.58302,-7.65926 -50.78696,-12.13702 -46.545,-12.25488 -59.74249,-39.23911 -59.74249,-63.51324 0,-33.46517 31.22629,-67.87306 88.14074,-67.87306 58.44632,0 92.6185,33.46518 92.6185,33.46518 l -38.17864,28.5161 C 136.45331,92.14719 113.23973,89.2013 100.3957,89.2013 c -12.96188,0 -26.51301,3.6529 -28.63404,12.96188 -2.00318,9.07337 6.36318,16.02562 20.85684,20.03198 16.37917,4.35991 31.46208,8.24851 54.43996,14.8473 34.29003,9.78029 57.85706,24.6276 57.85706,59.15333 0,47.36976 -42.06714,71.87951 -98.62813,71.87951 C 49.84435,268.0753 11.54786,238.73424 0,225.06535"
        id="S" />
    <path d="m 221.88385,0 13.19759,0 0,310.9673 -13.19759,0 0,-310.9673 z" id="I" />
    <path
        d="m 265.95427,261.82996 0,-212.81048 170.27194,0 0,48.66594 -110.52945,0 0,33.93657 78.24259,0 0,46.89846 -78.24259,0 0,34.29003 113.59319,0 0,49.01948 -173.33568,0"
        id="E" />
    <use transform="translate(239.79476,0)" id="I2" xlink:href="#I" />
    <path
        d="m 505.74908,261.82996 0,-212.69263 125.0232,0 c 35.93975,0 65.04501,20.9747 65.04501,53.85071 0,26.04161 -16.02553,41.24237 -30.51928,47.0163 0,0 -0.94271,0.23561 -2.47458,0.35346 1.53187,0.11785 2.47458,0.35355 2.47458,0.35355 25.21675,8.01282 43.36341,26.27723 43.36341,53.85071 0,35.23274 -29.69452,57.2679 -66.22343,57.2679 l -136.68891,0 m 60.09594,-47.25191 58.32847,0 c 10.36954,0 18.73581,-8.36627 18.73581,-19.44282 0,-10.9587 -8.36627,-19.32497 -18.73581,-19.32497 l -58.32847,0 0,38.76779 m 0,-83.89868 47.60547,0 c 11.07645,0 19.91413,-8.71982 19.91413,-18.61805 0,-10.01599 -8.83768,-18.73581 -19.91413,-18.73581 l -47.60547,0 0,37.35386"
        id="B" />
</svg>